<?xml version="1.0" encoding="UTF-8" standalone="no"?>
<!-- Created with Inkscape (http://www.inkscape.org/) -->

<svg
   xmlns:dc="http://purl.org/dc/elements/1.1/"
   xmlns:cc="http://creativecommons.org/ns#"
   xmlns:rdf="http://www.w3.org/1999/02/22-rdf-syntax-ns#"
   xmlns:svg="http://www.w3.org/2000/svg"
   xmlns="http://www.w3.org/2000/svg"
   xmlns:sodipodi="http://sodipodi.sourceforge.net/DTD/sodipodi-0.dtd"
   xmlns:inkscape="http://www.inkscape.org/namespaces/inkscape"
   width="38.261944"
   height="26.723207"
   id="svg6024"
   version="1.1"
   inkscape:version="0.48.2 r9819"
   sodipodi:docname="New document 16">
  <defs
     id="defs6026" />
  <sodipodi:namedview
     id="base"
     pagecolor="#ffffff"
     bordercolor="#666666"
     borderopacity="1.0"
     inkscape:pageopacity="0.0"
     inkscape:pageshadow="2"
     inkscape:zoom="0.35"
     inkscape:cx="-91.583316"
     inkscape:cy="-43.781253"
     inkscape:document-units="px"
     inkscape:current-layer="layer1"
     showgrid="false"
     fit-margin-top="0"
     fit-margin-left="0"
     fit-margin-right="0"
     fit-margin-bottom="0"
     inkscape:window-width="471"
     inkscape:window-height="453"
     inkscape:window-x="364"
     inkscape:window-y="1224"
     inkscape:window-maximized="0" />
  <metadata
     id="metadata6029">
    <rdf:RDF>
      <cc:Work
         rdf:about="">
        <dc:format>image/svg+xml</dc:format>
        <dc:type
           rdf:resource="http://purl.org/dc/dcmitype/StillImage" />
        <dc:title></dc:title>
      </cc:Work>
    </rdf:RDF>
  </metadata>
  <g
     inkscape:label="Layer 1"
     inkscape:groupmode="layer"
     id="layer1"
     transform="translate(-466.58332,-461.85772)">
    <g
       id="g3571"
       transform="matrix(1.25,0,0,-1.25,484.98151,487.46343)">
      <path
         d="m 0,0 c -4.195,4.558 -9.028,4.553 -14.623,-0.894 0,5.236 -0.215,10.476 0,15.707 0.295,7.155 13.502,7.65 15.209,0.859 0.554,2.202 2.317,3.637 4.456,4.328 l 0,-12.545 3.192,3.67 3.193,-3.67 0,12.523 c 2.395,-0.796 4.26,-2.527 4.368,-5.165 0.216,-5.231 0,-10.471 0,-15.707 C 10.2,4.553 5.367,4.558 1.172,0 0.315,-0.931 0.857,-0.931 0,0"
         style="fill:#231f20;fill-opacity:1;fill-rule:evenodd;stroke:none"
         id="path3573"
         inkscape:connector-curvature="0" />
    </g>
  </g>
</svg>
