<?xml version="1.0" encoding="UTF-8" standalone="no"?>
<!-- Created with Inkscape (http://www.inkscape.org/) -->

<svg
   xmlns:dc="http://purl.org/dc/elements/1.1/"
   xmlns:cc="http://creativecommons.org/ns#"
   xmlns:rdf="http://www.w3.org/1999/02/22-rdf-syntax-ns#"
   xmlns:svg="http://www.w3.org/2000/svg"
   xmlns="http://www.w3.org/2000/svg"
   xmlns:sodipodi="http://sodipodi.sourceforge.net/DTD/sodipodi-0.dtd"
   xmlns:inkscape="http://www.inkscape.org/namespaces/inkscape"
   width="40.803909"
   height="26.733112"
   id="svg5922"
   version="1.1"
   inkscape:version="0.48.2 r9819"
   sodipodi:docname="New document 10">
  <defs
     id="defs5924" />
  <sodipodi:namedview
     id="base"
     pagecolor="#ffffff"
     bordercolor="#666666"
     borderopacity="1.0"
     inkscape:pageopacity="0.0"
     inkscape:pageshadow="2"
     inkscape:zoom="0.35"
     inkscape:cx="92.544811"
     inkscape:cy="-12.347733"
     inkscape:document-units="px"
     inkscape:current-layer="layer1"
     showgrid="false"
     fit-margin-top="0"
     fit-margin-left="0"
     fit-margin-right="0"
     fit-margin-bottom="0"
     inkscape:window-width="471"
     inkscape:window-height="453"
     inkscape:window-x="320"
     inkscape:window-y="1166"
     inkscape:window-maximized="0" />
  <metadata
     id="metadata5927">
    <rdf:RDF>
      <cc:Work
         rdf:about="">
        <dc:format>image/svg+xml</dc:format>
        <dc:type
           rdf:resource="http://purl.org/dc/dcmitype/StillImage" />
        <dc:title></dc:title>
      </cc:Work>
    </rdf:RDF>
  </metadata>
  <g
     inkscape:label="Layer 1"
     inkscape:groupmode="layer"
     id="layer1"
     transform="translate(-282.45519,-493.28134)">
    <g
       id="g3697"
       transform="matrix(1.25,0,0,-1.25,287.4271,520.01445)">
      <path
         d="m 0,0 c -3.836,2.784 -5.879,7.808 -1.541,10.171 2.037,1.111 1.337,1.6 1.497,3.414 0.295,3.341 1.862,2.531 5.364,2.343 2.28,-0.123 2.189,0.118 3.559,1.847 6.482,8.183 15.403,0.672 16.064,-4.932 0.261,-2.198 -0.371,-1.697 1.648,-3.11 4.351,-3.045 1.287,-7.947 -3.92,-9.448 4.183,1.553 6.435,5.599 2.769,8.164 -1.794,1.257 -1.233,0.811 -1.463,2.764 -0.589,4.982 -8.519,11.66 -14.284,4.384 C 8.477,14.061 8.558,13.848 6.531,13.956 3.419,14.125 2.025,14.844 1.763,11.874 1.62,10.261 2.242,9.826 0.432,8.839 -3.32,6.793 -1.702,2.509 1.529,0 L 0,0 z"
         style="fill:#231f20;fill-opacity:1;fill-rule:evenodd;stroke:none"
         id="path3699"
         inkscape:connector-curvature="0" />
    </g>
  </g>
</svg>
