<?xml version="1.0" encoding="UTF-8" standalone="no"?>
<!-- Created with Inkscape (http://www.inkscape.org/) -->

<svg
   xmlns:dc="http://purl.org/dc/elements/1.1/"
   xmlns:cc="http://creativecommons.org/ns#"
   xmlns:rdf="http://www.w3.org/1999/02/22-rdf-syntax-ns#"
   xmlns:svg="http://www.w3.org/2000/svg"
   xmlns="http://www.w3.org/2000/svg"
   xmlns:sodipodi="http://sodipodi.sourceforge.net/DTD/sodipodi-0.dtd"
   xmlns:inkscape="http://www.inkscape.org/namespaces/inkscape"
   width="27.308624"
   height="26.651125"
   id="svg6245"
   version="1.1"
   inkscape:version="0.48.2 r9819"
   sodipodi:docname="New document 28">
  <defs
     id="defs6247" />
  <sodipodi:namedview
     id="base"
     pagecolor="#ffffff"
     bordercolor="#666666"
     borderopacity="1.0"
     inkscape:pageopacity="0.0"
     inkscape:pageshadow="2"
     inkscape:zoom="0.35"
     inkscape:cx="154.3686"
     inkscape:cy="-63.817308"
     inkscape:document-units="px"
     inkscape:current-layer="layer1"
     showgrid="false"
     fit-margin-top="0"
     fit-margin-left="0"
     fit-margin-right="0"
     fit-margin-bottom="0"
     inkscape:window-width="471"
     inkscape:window-height="453"
     inkscape:window-x="254"
     inkscape:window-y="1079"
     inkscape:window-maximized="0" />
  <metadata
     id="metadata6250">
    <rdf:RDF>
      <cc:Work
         rdf:about="">
        <dc:format>image/svg+xml</dc:format>
        <dc:type
           rdf:resource="http://purl.org/dc/dcmitype/StillImage" />
        <dc:title></dc:title>
      </cc:Work>
    </rdf:RDF>
  </metadata>
  <g
     inkscape:label="Layer 1"
     inkscape:groupmode="layer"
     id="layer1"
     transform="translate(-220.6314,-441.89375)">
    <g
       transform="matrix(1.25,0,0,-1.25,-188.6466,1279.452)"
       id="g6216">
      <g
         transform="translate(334.4434,668.4946)"
         id="g3161">
        <path
           inkscape:connector-curvature="0"
           id="path3163"
           style="fill:#231f20;fill-opacity:1;fill-rule:evenodd;stroke:none"
           d="m 0,0 c -2.902,0 -5.257,-2.354 -5.257,-5.256 0,-2.903 2.355,-5.257 5.257,-5.257 2.902,0 5.256,2.354 5.256,5.257 C 5.256,-2.354 2.902,0 0,0 M 0.551,0.525 C 1.164,0.467 1.751,0.313 2.294,0.08 l 0.503,0.87 1.127,-0.651 -0.5,-0.866 c 0.489,-0.357 0.92,-0.789 1.276,-1.28 l 0.868,0.502 0.651,-1.128 -0.877,-0.506 c 0.232,-0.542 0.384,-1.127 0.44,-1.74 l 1.039,0 0,-1.302 -1.064,0 C 5.678,-6.619 5.509,-7.188 5.262,-7.714 L 6.219,-8.267 5.568,-9.394 4.581,-8.824 C 4.227,-9.279 3.805,-9.68 3.332,-10.012 l 0.592,-1.027 -1.127,-0.65 -0.609,1.053 c -0.513,-0.209 -1.063,-0.347 -1.637,-0.402 l 0,-1.253 -1.302,0 0,1.276 c -0.562,0.073 -1.1,0.225 -1.6,0.447 l -0.647,-1.121 -1.127,0.65 0.651,1.129 c -0.442,0.331 -0.837,0.724 -1.169,1.166 l -1.127,-0.65 -0.65,1.127 1.116,0.644 c -0.224,0.501 -0.379,1.039 -0.453,1.602 l -1.264,0 0,1.302 1.239,0 c 0.053,0.578 0.19,1.131 0.4,1.647 l -1.038,0.599 0.65,1.128 1.011,-0.584 c 0.333,0.477 0.737,0.9 1.195,1.257 l -0.561,0.971 1.127,0.651 0.544,-0.942 c 0.529,0.247 1.101,0.416 1.703,0.494 l 0,1.05 1.302,0 0,-1.027 z" />
      </g>
      <g
         transform="translate(344.9473,658.3687)"
         id="g3165">
        <path
           inkscape:connector-curvature="0"
           id="path3167"
           style="fill:#231f20;fill-opacity:1;fill-rule:evenodd;stroke:none"
           d="m 0,0 c -2.25,0.594 -4.557,-0.749 -5.151,-2.999 -0.595,-2.251 0.748,-4.557 2.999,-5.152 2.25,-0.594 4.557,0.749 5.151,2.999 C 3.594,-2.901 2.251,-0.594 0,0 m 0.535,0.294 c 0.464,-0.17 0.887,-0.41 1.261,-0.702 L 2.363,0.164 3.104,-0.572 2.539,-1.141 c 0.306,-0.377 0.552,-0.8 0.728,-1.254 L 4.042,-2.184 4.316,-3.191 3.532,-3.404 C 3.601,-3.872 3.599,-4.356 3.517,-4.843 L 4.322,-5.056 4.057,-6.065 3.231,-5.847 C 3.048,-6.294 2.799,-6.701 2.5,-7.059 L 3.129,-7.683 2.394,-8.424 1.745,-7.78 C 1.377,-8.06 0.968,-8.285 0.533,-8.445 l 0.249,-0.917 -1.007,-0.274 -0.255,0.941 c -0.442,-0.057 -0.897,-0.051 -1.353,0.025 l -0.257,-0.973 -1.009,0.267 0.261,0.99 c -0.421,0.171 -0.806,0.4 -1.147,0.674 l -0.732,-0.737 -0.741,0.735 0.736,0.742 c -0.276,0.347 -0.501,0.733 -0.668,1.143 l -1.006,-0.273 -0.274,1.007 0.997,0.271 c -0.071,0.434 -0.081,0.883 -0.022,1.335 l -0.982,0.26 0.267,1.008 0.961,-0.254 c 0.159,0.437 0.38,0.838 0.648,1.196 l -0.682,0.677 0.735,0.741 0.664,-0.66 c 0.356,0.301 0.756,0.547 1.184,0.73 L -3.136,1.077 -2.129,1.35 -1.9,0.508 c 0.461,0.083 0.939,0.098 1.421,0.035 L -0.264,1.357 0.745,1.09 0.535,0.294 z" />
      </g>
      <g
         transform="translate(344.7021,657.437)"
         id="g3169">
        <path
           inkscape:connector-curvature="0"
           id="path3171"
           style="fill:#231f20;fill-opacity:1;fill-rule:evenodd;stroke:none"
           d="M 0,0 C 1.735,-0.458 2.771,-2.238 2.313,-3.974 1.854,-5.71 0.074,-6.746 -1.661,-6.288 -3.397,-5.829 -4.434,-4.049 -3.975,-2.313 -3.517,-0.577 -1.736,0.459 0,0" />
      </g>
      <g
         transform="translate(334.4414,659.1992)"
         id="g4397">
        <path
           inkscape:connector-curvature="0"
           id="path4399"
           style="fill:#231f20;fill-opacity:1;fill-rule:evenodd;stroke:none"
           d="m 0,0 c 2.226,0 4.04,1.814 4.04,4.039 0,2.225 -1.814,4.04 -4.04,4.04 -2.225,0 -4.039,-1.815 -4.039,-4.04 C -4.039,1.814 -2.225,0 0,0" />
      </g>
    </g>
  </g>
</svg>
