<?xml version="1.0" encoding="UTF-8" standalone="no"?>
<!-- Created with Inkscape (http://www.inkscape.org/) -->

<svg
   xmlns:dc="http://purl.org/dc/elements/1.1/"
   xmlns:cc="http://creativecommons.org/ns#"
   xmlns:rdf="http://www.w3.org/1999/02/22-rdf-syntax-ns#"
   xmlns:svg="http://www.w3.org/2000/svg"
   xmlns="http://www.w3.org/2000/svg"
   xmlns:sodipodi="http://sodipodi.sourceforge.net/DTD/sodipodi-0.dtd"
   xmlns:inkscape="http://www.inkscape.org/namespaces/inkscape"
   width="8.7912798"
   height="26.740362"
   id="svg5812"
   version="1.1"
   inkscape:version="0.48.2 r9819"
   sodipodi:docname="New document 4">
  <defs
     id="defs5814" />
  <sodipodi:namedview
     id="base"
     pagecolor="#ffffff"
     bordercolor="#666666"
     borderopacity="1.0"
     inkscape:pageopacity="0.0"
     inkscape:pageshadow="2"
     inkscape:zoom="0.35"
     inkscape:cx="45.109926"
     inkscape:cy="-43.77268"
     inkscape:document-units="px"
     inkscape:current-layer="layer1"
     showgrid="false"
     fit-margin-top="0"
     fit-margin-left="0"
     fit-margin-right="0"
     fit-margin-bottom="0"
     inkscape:window-width="471"
     inkscape:window-height="453"
     inkscape:window-x="342"
     inkscape:window-y="1195"
     inkscape:window-maximized="0" />
  <metadata
     id="metadata5817">
    <rdf:RDF>
      <cc:Work
         rdf:about="">
        <dc:format>image/svg+xml</dc:format>
        <dc:type
           rdf:resource="http://purl.org/dc/dcmitype/StillImage" />
        <dc:title></dc:title>
      </cc:Work>
    </rdf:RDF>
  </metadata>
  <g
     inkscape:label="Layer 1"
     inkscape:groupmode="layer"
     id="layer1"
     transform="translate(-329.89007,-461.84914)">
    <g
       id="g3579"
       transform="matrix(1.25,0,0,-1.25,334.19885,461.84917)">
      <path
         d="m 0,0 c -1.664,-0.003 -3.454,-1.098 -3.447,-3.49 l 0.05,-15.528 c 0.003,-0.836 0.414,-1.531 1.159,-1.96 0.97,-0.556 2.323,-0.552 3.289,0.01 0.743,0.432 1.15,1.13 1.147,1.965 L 2.161,-7.391 c -0.002,0.712 -0.35,1.32 -0.955,1.666 -0.712,0.408 -1.659,0.409 -2.357,0.003 -0.563,-0.327 -0.887,-0.889 -0.884,-1.541 l 0.031,-9.793 c 10e-4,-0.27 0.22,-0.489 0.491,-0.488 0.271,0.002 0.489,0.221 0.488,0.491 l -0.031,9.794 c 0,0.304 0.132,0.536 0.398,0.691 0.393,0.228 0.971,0.226 1.375,-0.006 0.308,-0.176 0.465,-0.452 0.465,-0.819 l 0.036,-11.612 c 0.003,-0.485 -0.219,-0.862 -0.659,-1.116 -0.657,-0.382 -1.65,-0.385 -2.309,-0.006 -0.442,0.252 -0.666,0.626 -0.668,1.111 l -0.049,15.53 c -0.006,1.728 1.237,2.504 2.471,2.507 1.231,0.004 2.56,-0.775 2.565,-2.493 l 0.037,-11.892 c 0.002,-0.27 0.222,-0.489 0.492,-0.489 0.271,0.002 0.489,0.221 0.488,0.492 L 3.549,-3.47 C 3.545,-2.325 3.096,-1.454 2.427,-0.872 1.761,-0.292 0.877,0.003 0,0"
         style="fill:#231f20;fill-opacity:1;fill-rule:nonzero;stroke:none"
         id="path3581"
         inkscape:connector-curvature="0" />
    </g>
  </g>
</svg>
