<?xml version="1.0" encoding="UTF-8" standalone="no"?>
<!-- Created with Inkscape (http://www.inkscape.org/) -->

<svg
   xmlns:dc="http://purl.org/dc/elements/1.1/"
   xmlns:cc="http://creativecommons.org/ns#"
   xmlns:rdf="http://www.w3.org/1999/02/22-rdf-syntax-ns#"
   xmlns:svg="http://www.w3.org/2000/svg"
   xmlns="http://www.w3.org/2000/svg"
   xmlns:sodipodi="http://sodipodi.sourceforge.net/DTD/sodipodi-0.dtd"
   xmlns:inkscape="http://www.inkscape.org/namespaces/inkscape"
   width="23.82375"
   height="26.727625"
   id="svg6120"
   version="1.1"
   inkscape:version="0.48.2 r9819"
   sodipodi:docname="New document 22">
  <defs
     id="defs6122" />
  <sodipodi:namedview
     id="base"
     pagecolor="#ffffff"
     bordercolor="#666666"
     borderopacity="1.0"
     inkscape:pageopacity="0.0"
     inkscape:pageshadow="2"
     inkscape:zoom="0.35"
     inkscape:cx="132.62617"
     inkscape:cy="-78.064758"
     inkscape:document-units="px"
     inkscape:current-layer="layer1"
     showgrid="false"
     fit-margin-top="0"
     fit-margin-left="0"
     fit-margin-right="0"
     fit-margin-bottom="0"
     inkscape:window-width="471"
     inkscape:window-height="453"
     inkscape:window-x="276"
     inkscape:window-y="1108"
     inkscape:window-maximized="0" />
  <metadata
     id="metadata6125">
    <rdf:RDF>
      <cc:Work
         rdf:about="">
        <dc:format>image/svg+xml</dc:format>
        <dc:type
           rdf:resource="http://purl.org/dc/dcmitype/StillImage" />
        <dc:title></dc:title>
      </cc:Work>
    </rdf:RDF>
  </metadata>
  <g
     inkscape:label="Layer 1"
     inkscape:groupmode="layer"
     id="layer1"
     transform="translate(-242.37384,-427.5698)">
    <g
       transform="matrix(1.25,0,0,-1.25,-383.85854,845.6618)"
       id="g6099">
      <g
         transform="translate(515.0479,327.4375)"
         id="g4005">
        <path
           inkscape:connector-curvature="0"
           id="path4007"
           style="fill:#231f20;fill-opacity:1;fill-rule:nonzero;stroke:none"
           d="m 0,0 c 1.463,-1.297 2.303,-2.862 2.303,-4.816 0,-3.77 -3.067,-6.835 -6.835,-6.835 -3.77,0 -6.835,3.065 -6.835,6.835 0,1.825 0.711,3.542 2.002,4.833 l -1.906,1.905 c -1.799,-1.801 -2.791,-4.193 -2.791,-6.738 0,-5.254 4.275,-9.53 9.53,-9.53 5.254,0 9.529,4.276 9.529,9.53 0,2.724 -1.17,5.024 -3.209,6.833 L 0,0 z" />
      </g>
      <g
         transform="translate(511.8867,322.7266)"
         id="g4009">
        <path
           inkscape:connector-curvature="0"
           id="path4011"
           style="fill:#231f20;fill-opacity:1;fill-rule:nonzero;stroke:none"
           d="m 0,0 c 0,-0.787 -0.715,-1.424 -1.598,-1.424 -0.881,0 -1.596,0.637 -1.596,1.424 l 0,10.323 c 0,0.787 0.715,1.424 1.596,1.424 C -0.715,11.747 0,11.11 0,10.323 L 0,0 z" />
      </g>
    </g>
  </g>
</svg>
