<?xml version="1.0" encoding="UTF-8" standalone="no"?>
<!-- Created with Inkscape (http://www.inkscape.org/) -->

<svg
   xmlns:dc="http://purl.org/dc/elements/1.1/"
   xmlns:cc="http://creativecommons.org/ns#"
   xmlns:rdf="http://www.w3.org/1999/02/22-rdf-syntax-ns#"
   xmlns:svg="http://www.w3.org/2000/svg"
   xmlns="http://www.w3.org/2000/svg"
   xmlns:sodipodi="http://sodipodi.sourceforge.net/DTD/sodipodi-0.dtd"
   xmlns:inkscape="http://www.inkscape.org/namespaces/inkscape"
   width="28.997499"
   height="26.7125"
   id="svg6053"
   version="1.1"
   inkscape:version="0.48.2 r9819"
   sodipodi:docname="New document 18">
  <defs
     id="defs6055" />
  <sodipodi:namedview
     id="base"
     pagecolor="#ffffff"
     bordercolor="#666666"
     borderopacity="1.0"
     inkscape:pageopacity="0.0"
     inkscape:pageshadow="2"
     inkscape:zoom="0.35"
     inkscape:cx="60.92732"
     inkscape:cy="-52.358033"
     inkscape:document-units="px"
     inkscape:current-layer="layer1"
     showgrid="false"
     fit-margin-top="0"
     fit-margin-left="0"
     fit-margin-right="0"
     fit-margin-bottom="0"
     inkscape:window-width="471"
     inkscape:window-height="453"
     inkscape:window-x="276"
     inkscape:window-y="1108"
     inkscape:window-maximized="0" />
  <metadata
     id="metadata6058">
    <rdf:RDF>
      <cc:Work
         rdf:about="">
        <dc:format>image/svg+xml</dc:format>
        <dc:type
           rdf:resource="http://purl.org/dc/dcmitype/StillImage" />
        <dc:title></dc:title>
      </cc:Work>
    </rdf:RDF>
  </metadata>
  <g
     inkscape:label="Layer 1"
     inkscape:groupmode="layer"
     id="layer1"
     transform="translate(-314.07268,-453.29165)">
    <g
       id="g3769"
       transform="matrix(1.25,0,0,-1.25,322.58518,467.50165)">
      <path
         d="M 0,0 -1.898,0 -4.961,0 -6.81,0 -3.405,-3.405 0,0 z m -4.961,0 c -0.014,0.226 -0.021,0.454 -0.021,0.684 0,5.899 4.785,10.684 10.685,10.684 5.9,0 10.685,-4.785 10.685,-10.684 0,-5.901 -4.785,-10.686 -10.685,-10.686 -3.687,0 -6.94,1.869 -8.86,4.712 l 2.532,1.707 c 1.372,-2.029 3.694,-3.364 6.328,-3.364 4.214,0 7.631,3.417 7.631,7.631 0,4.212 -3.417,7.63 -7.631,7.63 -4.214,0 -7.631,-3.418 -7.631,-7.63 0,-0.231 0.011,-0.459 0.03,-0.684 l -3.063,0 z"
         style="fill:#231f20;fill-opacity:1;fill-rule:evenodd;stroke:none"
         id="path3771"
         inkscape:connector-curvature="0" />
    </g>
  </g>
</svg>
