<?xml version="1.0" encoding="UTF-8" standalone="no"?>
<!-- Created with Inkscape (http://www.inkscape.org/) -->

<svg
   xmlns:dc="http://purl.org/dc/elements/1.1/"
   xmlns:cc="http://creativecommons.org/ns#"
   xmlns:rdf="http://www.w3.org/1999/02/22-rdf-syntax-ns#"
   xmlns:svg="http://www.w3.org/2000/svg"
   xmlns="http://www.w3.org/2000/svg"
   xmlns:sodipodi="http://sodipodi.sourceforge.net/DTD/sodipodi-0.dtd"
   xmlns:inkscape="http://www.inkscape.org/namespaces/inkscape"
   width="26.775047"
   height="26.751413"
   id="svg6082"
   version="1.1"
   inkscape:version="0.48.2 r9819"
   sodipodi:docname="New document 20">
  <defs
     id="defs6084" />
  <sodipodi:namedview
     id="base"
     pagecolor="#ffffff"
     bordercolor="#666666"
     borderopacity="1.0"
     inkscape:pageopacity="0.0"
     inkscape:pageshadow="2"
     inkscape:zoom="0.35"
     inkscape:cx="128.38753"
     inkscape:cy="-55.19572"
     inkscape:document-units="px"
     inkscape:current-layer="layer1"
     showgrid="false"
     fit-margin-top="0"
     fit-margin-left="0"
     fit-margin-right="0"
     fit-margin-bottom="0"
     inkscape:window-width="471"
     inkscape:window-height="453"
     inkscape:window-x="364"
     inkscape:window-y="1224"
     inkscape:window-maximized="0" />
  <metadata
     id="metadata6087">
    <rdf:RDF>
      <cc:Work
         rdf:about="">
        <dc:format>image/svg+xml</dc:format>
        <dc:type
           rdf:resource="http://purl.org/dc/dcmitype/StillImage" />
        <dc:title></dc:title>
      </cc:Work>
    </rdf:RDF>
  </metadata>
  <g
     inkscape:label="Layer 1"
     inkscape:groupmode="layer"
     id="layer1"
     transform="translate(-246.61247,-450.41505)">
    <g
       id="g4313"
       transform="matrix(1.25,0,0,-1.25,251.61137,450.76255)">
      <path
         d="M 0,0 0,-1.788 C 0,-1.957 0.142,-2.113 0.312,-2.134 L 1.764,-2.299 C 1.935,-2.317 2.15,-2.452 2.24,-2.598 l 0.846,-1.344 c 0.092,-0.145 0.12,-0.399 0.061,-0.559 L 2.865,-5.313 C 2.808,-5.477 2.662,-5.708 2.541,-5.83 L 2.056,-6.314 C 1.933,-6.437 1.701,-6.584 1.54,-6.641 L 0.727,-6.925 C 0.565,-6.979 0.313,-6.953 0.167,-6.859 l -1.345,0.841 c -0.146,0.095 -0.281,0.31 -0.301,0.479 l -0.175,1.578 c -0.02,0.171 -0.034,0.314 -0.034,0.315 0.003,0.002 0.003,0.007 0,0.011 -0.004,0.005 -0.149,0.007 -0.321,0.007 l -1.712,0 c -0.172,0 -0.296,-0.142 -0.276,-0.31 l 0.317,-2.828 c 0.02,-0.171 0.153,-0.386 0.3,-0.476 l 3.207,-2.016 c 0.147,-0.092 0.397,-0.119 0.559,-0.064 l 1.794,0.627 c 0.161,0.058 0.395,0.007 0.517,-0.117 l 5.625,-5.623 c 0.121,-0.123 0.173,-0.356 0.118,-0.517 l -0.628,-1.793 c -0.057,-0.163 -0.03,-0.415 0.063,-0.562 L 9.89,-20.51 c 0.089,-0.148 0.307,-0.282 0.475,-0.303 l 2.745,-0.308 c 0.171,-0.02 0.311,0.103 0.311,0.278 l 0,1.783 c 0,0.173 -0.14,0.331 -0.311,0.351 l -1.452,0.162 c -0.174,0.018 -0.387,0.155 -0.478,0.301 l -0.846,1.344 c -0.089,0.147 -0.116,0.398 -0.063,0.56 l 0.524,1.498 c 0.057,0.163 0.238,0.344 0.399,0.398 l 1.5,0.526 c 0.162,0.058 0.413,0.029 0.561,-0.064 l 1.342,-0.845 c 0.146,-0.09 0.283,-0.306 0.302,-0.475 l 0.175,-1.58 c 0.02,-0.17 0.035,-0.31 0.035,-0.314 -0.005,-0.003 -0.002,-0.008 0,-0.01 0.004,-0.005 0.149,-0.008 0.32,-0.008 l 1.712,0 c 0.173,0 0.297,0.14 0.278,0.312 l -0.318,2.827 c -0.019,0.171 -0.153,0.387 -0.3,0.477 l -3.207,2.013 c -0.145,0.092 -0.397,0.121 -0.56,0.065 l -1.791,-0.628 c -0.165,-0.058 -0.396,-0.005 -0.519,0.116 l -5.625,5.626 c -0.122,0.121 -0.173,0.353 -0.118,0.515 l 0.63,1.794 c 0.055,0.164 0.027,0.417 -0.066,0.562 L 3.53,-0.332 C 3.441,-0.186 3.225,-0.053 3.053,-0.031 L 0.312,0.277 C 0.3,0.278 0.287,0.278 0.275,0.278 0.122,0.278 0,0.16 0,0"
         style="fill:#231f20;fill-opacity:1;fill-rule:nonzero;stroke:none"
         id="path4315"
         inkscape:connector-curvature="0" />
    </g>
  </g>
</svg>
