<?xml version="1.0" encoding="UTF-8" standalone="no"?>
<!-- Created with Inkscape (http://www.inkscape.org/) -->

<svg
   xmlns:dc="http://purl.org/dc/elements/1.1/"
   xmlns:cc="http://creativecommons.org/ns#"
   xmlns:rdf="http://www.w3.org/1999/02/22-rdf-syntax-ns#"
   xmlns:svg="http://www.w3.org/2000/svg"
   xmlns="http://www.w3.org/2000/svg"
   xmlns:sodipodi="http://sodipodi.sourceforge.net/DTD/sodipodi-0.dtd"
   xmlns:inkscape="http://www.inkscape.org/namespaces/inkscape"
   width="22.262501"
   height="26.76125"
   id="svg5960"
   version="1.1"
   inkscape:version="0.48.2 r9819"
   sodipodi:docname="New document 12">
  <defs
     id="defs5962" />
  <sodipodi:namedview
     id="base"
     pagecolor="#ffffff"
     bordercolor="#666666"
     borderopacity="1.0"
     inkscape:pageopacity="0.0"
     inkscape:pageshadow="2"
     inkscape:zoom="0.35"
     inkscape:cx="74.70268"
     inkscape:cy="-20.905083"
     inkscape:document-units="px"
     inkscape:current-layer="layer1"
     showgrid="false"
     fit-margin-top="0"
     fit-margin-left="0"
     fit-margin-right="0"
     fit-margin-bottom="0"
     inkscape:window-width="471"
     inkscape:window-height="453"
     inkscape:window-x="254"
     inkscape:window-y="1079"
     inkscape:window-maximized="0" />
  <metadata
     id="metadata5965">
    <rdf:RDF>
      <cc:Work
         rdf:about="">
        <dc:format>image/svg+xml</dc:format>
        <dc:type
           rdf:resource="http://purl.org/dc/dcmitype/StillImage" />
        <dc:title></dc:title>
      </cc:Work>
    </rdf:RDF>
  </metadata>
  <g
     inkscape:label="Layer 1"
     inkscape:groupmode="layer"
     id="layer1"
     transform="translate(-300.29732,-484.69585)">
    <g
       transform="matrix(1.25,0,0,-1.25,175.44607,1142.5221)"
       id="g5939">
      <path
         inkscape:connector-curvature="0"
         id="path3487"
         style="fill:#231f20;fill-opacity:1;fill-rule:evenodd;stroke:none"
         d="m 103.06,506.306 11.452,0 0,14.105 -11.452,0 0,-14.105 z m 1.211,15.559 8.948,0 0,0.341 c 0,1.39 -1.51,2.527 -3.355,2.527 l -2.237,0 c -1.845,0 -3.356,-1.137 -3.356,-2.527 l 0,-0.341 z m -2.877,0 0.06,0 1.65,0 0,1.022 c 0,1.856 1.904,3.374 4.231,3.374 l 2.821,0 c 2.327,0 4.231,-1.518 4.231,-3.374 l 0,-1.022 1.731,0 0.069,0 1.504,-2.367 -1.573,0 0,-14.646 -14.664,0 0,14.646 -1.573,0 1.513,2.367 z" />
      <path
         inkscape:connector-curvature="0"
         id="path3489"
         style="fill:#231f20;fill-opacity:1;fill-rule:evenodd;stroke:none"
         d="m 104.759,518.207 1.62,0 0,-9.665 -1.62,0 0,9.665 z" />
      <path
         inkscape:connector-curvature="0"
         id="path3491"
         style="fill:#231f20;fill-opacity:1;fill-rule:evenodd;stroke:none"
         d="m 107.987,518.207 1.62,0 0,-9.665 -1.62,0 0,9.665 z" />
      <path
         inkscape:connector-curvature="0"
         id="path3493"
         style="fill:#231f20;fill-opacity:1;fill-rule:evenodd;stroke:none"
         d="m 111.622,518.207 1.62,0 0,-9.665 -1.62,0 0,9.665 z" />
    </g>
  </g>
</svg>
